<svg width="30" height="31" viewBox="0 0 20 21" fill="none" xmlns="http://www.w3.org/2000/svg">
<path d="M11.25 6.14453C11.25 7.63637 10.6574 9.06711 9.60248 10.122C8.54758 11.1769 7.11684 11.7695 5.625 11.7695C4.13316 11.7695 2.70242 11.1769 1.64752 10.122C0.592632 9.06711 0 7.63637 0 6.14453C0 4.65269 0.592632 3.22195 1.64752 2.16706C2.70242 1.11216 4.13316 0.519531 5.625 0.519531C7.11684 0.519531 8.54758 1.11216 9.60248 2.16706C10.6574 3.22195 11.25 4.65269 11.25 6.14453ZM6.25 3.64453C6.25 3.47877 6.18415 3.3198 6.06694 3.20259C5.94973 3.08538 5.79076 3.01953 5.625 3.01953C5.45924 3.01953 5.30027 3.08538 5.18306 3.20259C5.06585 3.3198 5 3.47877 5 3.64453V5.51953H3.125C2.95924 5.51953 2.80027 5.58538 2.68306 5.70259C2.56585 5.8198 2.5 5.97877 2.5 6.14453C2.5 6.31029 2.56585 6.46926 2.68306 6.58647C2.80027 6.70368 2.95924 6.76953 3.125 6.76953H5V8.64453C5 8.81029 5.06585 8.96926 5.18306 9.08647C5.30027 9.20368 5.45924 9.26953 5.625 9.26953C5.79076 9.26953 5.94973 9.20368 6.06694 9.08647C6.18415 8.96926 6.25 8.81029 6.25 8.64453V6.76953H8.125C8.29076 6.76953 8.44973 6.70368 8.56694 6.58647C8.68415 6.46926 8.75 6.31029 8.75 6.14453C8.75 5.97877 8.68415 5.8198 8.56694 5.70259C8.44973 5.58538 8.29076 5.51953 8.125 5.51953H6.25V3.64453ZM5.625 13.0195C6.80178 13.0197 7.95892 12.7179 8.98565 12.1429C10.0124 11.5679 10.8743 10.7389 11.489 9.73543C12.1036 8.73192 12.4504 7.58744 12.4961 6.41155C12.5418 5.23566 12.2849 4.06772 11.75 3.01953H16.25C17.2065 3.01948 18.1269 3.38494 18.8228 4.04114C19.5188 4.69733 19.9376 5.59467 19.9938 6.54953L20 6.76953V11.7695H15L14.78 11.7758C13.863 11.8296 12.9977 12.2182 12.3482 12.8677C11.6986 13.5172 11.3101 14.3825 11.2563 15.2995L11.25 15.5195V20.5195H6.25C5.29349 20.5196 4.37311 20.1541 3.67717 19.4979C2.98124 18.8417 2.56237 17.9444 2.50625 16.9895L2.5 16.7695V12.2695C3.4375 12.7495 4.5 13.0195 5.625 13.0195ZM19.875 13.0208C19.7781 13.318 19.6263 13.5945 19.4275 13.8358L19.2675 14.0108L13.4913 19.787C13.2113 20.067 12.8713 20.2745 12.5013 20.3958L12.5 15.5195L12.5063 15.332C12.551 14.7368 12.8072 14.1772 13.2286 13.7545C13.65 13.3317 14.2087 13.0737 14.8038 13.027L15 13.0195L19.875 13.0208Z" fill="black"/>
</svg>
