<svg width="30" height="31" viewBox="0 0 20 21" fill="none" xmlns="http://www.w3.org/2000/svg">
<path d="M2.31486e-07 15.2895C2.31486e-07 16.1515 0.34241 16.9782 0.951903 17.5876C1.5614 18.1971 2.38805 18.5395 3.25 18.5395H8.165L8.521 17.1165L8.541 17.0395H3.25C2.78587 17.0395 2.34075 16.8552 2.01256 16.527C1.68437 16.1988 1.5 15.7537 1.5 15.2895V8.53955H4.75L4.934 8.53455C5.7628 8.48755 6.54221 8.12518 7.11233 7.52178C7.68244 6.91838 8.00005 6.11969 8 5.28955V2.03955H14.75C15.716 2.03955 16.5 2.82355 16.5 3.78955V8.77155C16.979 8.58155 17.494 8.50855 18 8.55155V3.78955C18 2.9276 17.6576 2.10095 17.0481 1.49145C16.4386 0.88196 15.612 0.539551 14.75 0.539551H7.871C7.27461 0.539811 6.70271 0.77684 6.281 1.19855L0.658 6.81955C0.236411 7.24167 -0.000270197 7.81395 2.31486e-07 8.41055V15.2895ZM4.75 7.03955H2.561L6.5 3.10055V5.28955L6.494 5.43355C6.45786 5.87125 6.25846 6.27936 5.93539 6.57687C5.61232 6.87438 5.18919 7.03953 4.75 7.03955ZM16.1 10.2095L10.197 16.1115C9.85308 16.4556 9.60906 16.8866 9.491 17.3585L9.033 19.1895C8.98745 19.3717 8.98987 19.5626 9.04003 19.7436C9.09019 19.9245 9.18637 20.0894 9.3192 20.2221C9.45204 20.3549 9.61699 20.4509 9.79799 20.5009C9.97899 20.551 10.1699 20.5532 10.352 20.5075L12.182 20.0505C12.6544 19.9324 13.0858 19.688 13.43 19.3435L19.332 13.4415C19.7441 13.0096 19.9709 12.4336 19.9639 11.8367C19.9569 11.2397 19.7166 10.6692 19.2945 10.2471C18.8723 9.82494 18.3018 9.58469 17.7049 9.57768C17.1079 9.57067 16.5319 9.79745 16.1 10.2095Z" fill="black"/>
</svg>
