<svg width="150" height="150" viewBox="0 0 150 150" fill="none" xmlns="http://www.w3.org/2000/svg">
<path d="M75.0001 37.5C68.4816 37.5083 62.2325 40.1014 57.6232 44.7106C53.014 49.3199 50.4209 55.569 50.4126 62.0875H62.9126C62.9126 55.4187 68.3376 50 75.0001 50C81.6626 50 87.0876 55.4187 87.0876 62.0875C87.0876 65.825 84.0814 68.5375 79.4876 72.25C77.9869 73.4256 76.5455 74.6751 75.1689 75.9938C68.9314 82.225 68.7501 88.8438 68.7501 89.5813V93.75H81.2501L81.2438 89.7937C81.2501 89.6937 81.4501 87.3813 84.0001 84.8375C84.9376 83.9 86.1189 82.9625 87.3439 81.975C92.2126 78.0313 99.5813 72.075 99.5813 62.0875C99.5764 55.5691 96.9852 49.319 92.3766 44.7092C87.7679 40.0994 81.5185 37.5066 75.0001 37.5ZM68.7501 100H81.2501V112.5H68.7501V100Z" fill="black"/>
<path d="M75 12.5C40.5375 12.5 12.5 40.5375 12.5 75C12.5 109.462 40.5375 137.5 75 137.5C109.462 137.5 137.5 109.462 137.5 75C137.5 40.5375 109.462 12.5 75 12.5ZM75 125C47.4313 125 25 102.569 25 75C25 47.4313 47.4313 25 75 25C102.569 25 125 47.4313 125 75C125 102.569 102.569 125 75 125Z" fill="black"/>
</svg>
