<svg width="24" height="24" viewBox="0 0 24 24" fill="none" xmlns="http://www.w3.org/2000/svg">
<g clip-path="url(#clip0_1396_10148)">
<path d="M25.6141 6.13756L14.5379 2.29738C14.3499 2.23722 14.149 2.23722 13.961 2.29738L2.89637 6.13756H2.87329L2.75791 6.19756H2.74637L2.631 6.26957C2.631 6.28157 2.61946 6.28157 2.60792 6.29357L2.51562 6.37757L2.43486 6.47358C2.43486 6.48558 2.42332 6.48558 2.42332 6.49758L2.35409 6.60558C2.35409 6.61758 2.35409 6.61758 2.34256 6.62958L2.29641 6.73759L2.26179 6.8696V6.9056C2.25041 6.95262 2.24651 7.00127 2.25025 7.04961V16.6501C2.25025 16.9047 2.3475 17.1489 2.5206 17.3289C2.6937 17.509 2.92847 17.6101 3.17327 17.6101C3.41807 17.6101 3.65284 17.509 3.82594 17.3289C3.99904 17.1489 4.09628 16.9047 4.09628 16.6501V8.38167L7.97295 9.72573C7.24464 10.9383 6.86068 12.3402 6.86533 13.7699C6.86576 15.0702 7.18356 16.3491 7.78895 17.4867C8.39435 18.6243 9.26752 19.5835 10.3266 20.2742C8.12571 21.1403 6.24675 22.7121 4.96161 24.7625C4.83062 24.9779 4.78624 25.2383 4.83804 25.4874C4.88983 25.7366 5.03365 25.9546 5.23852 26.0945C5.33905 26.1638 5.45181 26.2117 5.57025 26.2353C5.68869 26.2589 5.81046 26.2579 5.92851 26.2322C6.04655 26.2065 6.15853 26.1567 6.25794 26.0857C6.35736 26.0147 6.44224 25.9239 6.50766 25.8185C7.34545 24.4762 8.49253 23.3731 9.84461 22.6094C11.1967 21.8457 12.7109 21.4457 14.2495 21.4457C15.788 21.4457 17.3022 21.8457 18.6543 22.6094C20.0064 23.3731 21.1535 24.4762 21.9912 25.8185C22.0755 25.9516 22.1903 26.0608 22.3252 26.1362C22.4602 26.2116 22.6111 26.2509 22.7643 26.2505C22.9411 26.2525 23.1142 26.198 23.2604 26.0945C23.4653 25.9546 23.6091 25.7366 23.6609 25.4874C23.7127 25.2383 23.6683 24.9779 23.5373 24.7625C22.2522 22.7121 20.3732 21.1403 18.1723 20.2742C19.2314 19.5835 20.1046 18.6243 20.7099 17.4867C21.3153 16.3491 21.6331 15.0702 21.6336 13.7699C21.6382 12.3402 21.2543 10.9383 20.526 9.72573L25.6141 7.96165C25.7987 7.89852 25.9595 7.77636 26.0735 7.61258C26.1875 7.44881 26.2489 7.25179 26.2489 7.04961C26.2489 6.84742 26.1875 6.6504 26.0735 6.48663C25.9595 6.32285 25.7987 6.20069 25.6141 6.13756ZM19.7875 13.7699C19.7875 15.2976 19.2041 16.7628 18.1655 17.8431C17.1269 18.9233 15.7182 19.5302 14.2495 19.5302C12.7807 19.5302 11.372 18.9233 10.3334 17.8431C9.29484 16.7628 8.71136 15.2976 8.71136 13.7699C8.71359 12.5408 9.08913 11.3437 9.78437 10.3498L13.961 11.8018C14.1484 11.8659 14.3505 11.8659 14.5379 11.8018L18.7145 10.3498C19.4098 11.3437 19.7853 12.5408 19.7875 13.7699ZM18.7145 8.33367H18.703L14.2495 9.88174L9.7959 8.33367H9.78437L6.0923 7.04961L14.2495 4.21747L22.4066 7.04961L18.7145 8.33367Z" fill="black"/>
</g>
<defs>
<clipPath id="clip0_1396_10148">
<rect width="24" height="24" fill="white"/>
</clipPath>
</defs>
</svg>
